<?xml version="1.0" encoding="UTF-8" standalone="no"?>
<svg
   xmlns:dc="http://purl.org/dc/elements/1.1/"
   xmlns:cc="http://creativecommons.org/ns#"
   xmlns:rdf="http://www.w3.org/1999/02/22-rdf-syntax-ns#"
   xmlns:svg="http://www.w3.org/2000/svg"
   xmlns="http://www.w3.org/2000/svg"
   xmlns:sodipodi="http://sodipodi.sourceforge.net/DTD/sodipodi-0.dtd"
   xmlns:inkscape="http://www.inkscape.org/namespaces/inkscape"
   version="1.1"
   viewBox="0.0 0.0 960.0 540.0"
   fill="none"
   stroke="none"
   stroke-linecap="square"
   stroke-miterlimit="10"
   id="svg2"
   inkscape:version="0.48.4 r9939"
   width="100%"
   height="100%"
   sodipodi:docname="Presentation Welcome to ASP.NET vNext - From nothing to Azure.svg">
  <metadata
     id="metadata45">
    <rdf:RDF>
      <cc:Work
         rdf:about="">
        <dc:format>image/svg+xml</dc:format>
        <dc:type
           rdf:resource="http://purl.org/dc/dcmitype/StillImage" />
        <dc:title></dc:title>
      </cc:Work>
    </rdf:RDF>
  </metadata>
  <defs
     id="defs43" />
  <sodipodi:namedview
     pagecolor="#ffffff"
     bordercolor="#666666"
     borderopacity="1"
     objecttolerance="10"
     gridtolerance="10"
     guidetolerance="10"
     inkscape:pageopacity="0"
     inkscape:pageshadow="2"
     inkscape:window-width="1366"
     inkscape:window-height="705"
     id="namedview41"
     showgrid="false"
     inkscape:zoom="1.1916667"
     inkscape:cx="493.66119"
     inkscape:cy="282.76509"
     inkscape:window-x="-8"
     inkscape:window-y="-8"
     inkscape:window-maximized="1"
     inkscape:current-layer="svg2" />
  <clipPath
     id="g44864c19e_03.0">
    <path
       d="m0 0l960.0 0l0 540.0l-960.0 0l0 -540.0z"
       clip-rule="nonzero"
       id="path5" />
  </clipPath>
  <path
     style="fill:#d45500;fill-rule:nonzero"
     inkscape:connector-curvature="0"
     id="path11"
     d="m 337.6004,161.37073 74.04724,0 0,149.00787 -74.04724,0 z"
     inkscape:export-xdpi="19.966349"
     inkscape:export-ydpi="19.966349" />
  <path
     style="fill:#ffffff;fill-rule:nonzero"
     inkscape:connector-curvature="0"
     id="path13"
     d="m 416.00665,187.25279 -49.23438,116.85939 -11.92187,0 49.25,-116.85939 11.90625,0 z"
     inkscape:export-filename="C:\Users\erlimar\Documents\GitHub\e5r.github.io\assets\img\path11.png"
     inkscape:export-xdpi="19.966349"
     inkscape:export-ydpi="19.966349" />
  <path
     style="fill:#000000;fill-opacity:0;fill-rule:nonzero"
     inkscape:connector-curvature="0"
     id="path15"
     d="m 361.6004,161.37073 74.04724,0 0,149.00787 -74.04724,0 z"
     inkscape:export-filename="C:\Users\erlimar\Documents\GitHub\e5r.github.io\assets\img\path11.png"
     inkscape:export-xdpi="19.966349"
     inkscape:export-ydpi="19.966349" />
  <path
     style="fill:#ffffff;fill-rule:nonzero"
     inkscape:connector-curvature="0"
     id="path17"
     d="m 440.00665,187.25279 -49.23438,116.85939 -11.92187,0 49.25,-116.85939 11.90625,0 z"
     inkscape:export-filename="C:\Users\erlimar\Documents\GitHub\e5r.github.io\assets\img\path11.png"
     inkscape:export-xdpi="19.966349"
     inkscape:export-ydpi="19.966349" />
  <path
     style="fill:#000000;fill-opacity:0;fill-rule:nonzero"
     inkscape:connector-curvature="0"
     id="path19"
     d="m 420.95276,165.62073 84.44095,0 0,149.00787 -84.44095,0 z"
     inkscape:export-filename="C:\Users\erlimar\Documents\GitHub\e5r.github.io\assets\img\path11.png"
     inkscape:export-xdpi="19.966349"
     inkscape:export-ydpi="19.966349" />
  <path
     style="fill:#ffffff;fill-rule:nonzero"
     inkscape:connector-curvature="0"
     id="path21"
     d="m 491.26526,288.12466 -48.26563,0 0,-84.875 48.26563,0 0,9.73437 -36.70313,0 0,26.29688 35.26563,0 0,9.75 -35.26563,0 0,29.21875 36.70313,0 0,9.875 z"
     inkscape:export-filename="C:\Users\erlimar\Documents\GitHub\e5r.github.io\assets\img\path11.png"
     inkscape:export-xdpi="19.966349"
     inkscape:export-ydpi="19.966349" />
  <path
     style="fill:#000000;fill-opacity:0;fill-rule:nonzero"
     inkscape:connector-curvature="0"
     id="path23"
     d="m 474.02478,165.62073 93.29132,0 0,149.00787 -93.29132,0 z"
     inkscape:export-filename="C:\Users\erlimar\Documents\GitHub\e5r.github.io\assets\img\path11.png"
     inkscape:export-xdpi="19.966349"
     inkscape:export-ydpi="19.966349" />
  <path
     style="fill:#ffffff;fill-rule:nonzero"
     inkscape:connector-curvature="0"
     id="path25"
     d="m 546.3373,260.98404 q 0,6.29687 -2.73437,11.5 -2.71875,5.1875 -7.5,8.92187 -4.76563,3.73438 -11.26563,5.8125 -6.48437,2.07813 -14.01562,2.07813 -1.89063,0 -4.0625,-0.10938 -2.17188,-0.0937 -4.3125,-0.25 -2.14063,-0.15625 -4.1875,-0.35937 -2.04688,-0.1875 -3.67188,-0.45313 l 0,-10.26562 q 3.5,0.84375 8.01563,1.23437 4.51562,0.39063 9.125,0.39063 5.20312,0 9.35937,-1.23438 4.15625,-1.23437 7.07813,-3.53125 2.92187,-2.3125 4.46875,-5.59375 1.5625,-3.28125 1.5625,-7.35937 0,-7.9375 -5.6875,-11.53125 -5.67188,-3.60938 -16.32813,-3.60938 l -16.10937,0 0,-43.375 45.71875,0 0,9.875 -35.0625,0 0,23.82813 7.40625,0 q 6.10937,0 11.875,1.10937 5.78125,1.09375 10.29687,3.85938 4.51563,2.75 7.26563,7.40625 2.76562,4.64062 2.76562,11.65625 z"
     inkscape:export-filename="C:\Users\erlimar\Documents\GitHub\e5r.github.io\assets\img\path11.png"
     inkscape:export-xdpi="19.966349"
     inkscape:export-ydpi="19.966349" />
  <path
     style="fill:#000000;fill-opacity:0;fill-rule:nonzero"
     inkscape:connector-curvature="0"
     id="path27"
     d="m 529.10724,165.62073 93.29132,0 0,149.00787 -93.29132,0 z"
     inkscape:export-filename="C:\Users\erlimar\Documents\GitHub\e5r.github.io\assets\img\path11.png"
     inkscape:export-xdpi="19.966349"
     inkscape:export-ydpi="19.966349" />
  <path
     style="fill:#ffffff;fill-rule:nonzero"
     inkscape:connector-curvature="0"
     id="path29"
     d="m 606.35724,288.12466 -13.04687,0 -12.67188,-27.14063 q -1.42187,-3.125 -2.92187,-5.17187 -1.48438,-2.04688 -3.21875,-3.23438 -1.71875,-1.20312 -3.76563,-1.71875 -2.03125,-0.53125 -4.5625,-0.53125 l -5.46875,0 0,37.79688 -11.54687,0 0,-84.875 22.71875,0 q 7.40625,0 12.73437,1.625 5.32813,1.625 8.73438,4.54687 3.40625,2.92188 5,7.04688 1.59375,4.10937 1.59375,9.125 0,3.95312 -1.17188,7.5 -1.17187,3.53125 -3.48437,6.42187 -2.29688,2.89063 -5.70313,5 -3.40625,2.10938 -7.82812,3.15625 3.57812,1.23438 6.07812,4.3125 2.5,3.07813 5.09375,8.21875 l 13.4375,27.92188 z m -18.5,-61.5625 q 0,-6.82813 -4.26562,-10.20313 -4.25,-3.375 -11.96875,-3.375 l -10.92188,0 0,28.0625 9.35938,0 q 4.09375,0 7.375,-0.9375 3.28125,-0.95312 5.57812,-2.79687 2.3125,-1.85938 3.57813,-4.54688 1.26562,-2.70312 1.26562,-6.20312 z"
     inkscape:export-filename="C:\Users\erlimar\Documents\GitHub\e5r.github.io\assets\img\path11.png"
     inkscape:export-xdpi="19.966349"
     inkscape:export-ydpi="19.966349" />
</svg>
